<svg viewBox="0 0 128 128" width="128" height="128" xmlns="http://www.w3.org/2000/svg">
    <path d="
    M104 64 V24 H24 v80 h8.6 l18.4 -21 a20 20 0 1 1 24.2 -27.6 a8 8 0 0 1 9.8 -1.6 L104 64
    M104 72 l-23 -12.6 L43 104 H104 V72
    M24 16 h80 a8 8 0 0 1 8 8 v80 a8 8 0 0 1-8 8 H24 a8 8 0 0 1-8-8 V24 a8 8 0 0 1 8-8
    M0 32 V8 a8 8 0 0 1 8-8 h24 v8 H8 v24 H0
    M0 96 h8 v24 h24 v8 H8 a8 8 0 0 1-8-8 V64
    M96 0 h24 a8 8 0 0 1 8 8 v24 h-8 V8 h-24 V0
    M96 128 v-8 h24 v-24 h8 v24 a8 8 0 0 1-8 8 H96
    M57.2 76 l11.8-13.4 a12 12 0 1 0-11.8 13.4
  " fill="white"/>
</svg>