<svg viewBox="0 0 1024 1024" xmlns="http://www.w3.org/2000/svg"
     width="32" height="32">
    <path d="M206 926a108 108 0 0 1-42-9A108 108 0 0 1 97 817V219a107 107 0 0 1 9-42 109 109 0 0 1 58-58 108 108 0 0 1 42-9h69a35 35 0 1 1 0 70H206a38 38 0 0 0-15 3 42 42 0 0 0-12 8 37 37 0 0 0-8 12 38 38 0 0 0-3 15v598a38 38 0 0 0 3 15 40 40 0 0 0 8 12 37 37 0 0 0 12 8 38 38 0 0 0 15 3H831a38 38 0 0 0 15-3 40 40 0 0 0 12-8 37 37 0 0 0 8-12 38 38 0 0 0 3-15V219a38 38 0 0 0-3-15 39 39 0 0 0-8-12 37 37 0 0 0-12-8 39 39 0 0 0-15-3H763a35 35 0 0 1 0-70h69a108 108 0 0 1 42 9 110 110 0 0 1 35 23 109 109 0 0 1 23 35 107 107 0 0 1 9 42v598a106 106 0 0 1-9 42 109 109 0 0 1-100 67z"
          fill="#333333"/>
    <path d="M286 741a34 34 0 0 1-15-3 35 35 0 0 1-17-47l284-539a35 35 0 0 1 64 30L318 721a35 35 0 0 1-32 20z"
          fill="#00B65F"/>
    <path d="M624 522h141a35 35 0 1 0 0-70h-141a35 35 0 0 0 0 70z m141 140H449a35 35 0 1 0 0 70h316a35 35 0 1 0 0-70z"
          fill="#333333"/>
</svg>