<svg xmlns="http://www.w3.org/2000/svg" width="359" height="306" viewBox="0 0 359 306" version="1">
	<rect x="0" y="0" width="100%" height="100%" fill="none" />
	<path d="M 110 9 C 95 10, 82 15, 76 21 C 73 24, 70 26, 68 26 C 64 26, 56 28, 54 30 C 52 32, 52 33, 52 37 C 53 43, 56 49, 62 55 L 66 60 57 69 C 16 108, 4 160, 30 184 C 37 191, 44 193, 56 194 C 70 194, 82 192, 96 185 L 106 179 106 184 C 105 187, 105 193, 105 198 L 105 206 101 209 C 92 216, 90 229, 94 240 C 97 246, 102 250, 108 253 C 111 254, 113 256, 113 256 C 113 259, 121 273, 125 277 C 131 284, 141 288, 146 285 C 153 281, 156 276, 157 265 C 157 257, 158 256, 160 258 C 160 258, 164 260, 169 262 C 186 268, 207 270, 225 266 L 234 265 238 268 C 243 274, 249 276, 255 276 C 258 276, 262 276, 263 275 C 265 274, 265 274, 269 278 C 278 289, 290 287, 294 275 C 297 267, 296 253, 292 241 C 290 233, 290 232, 291 230 C 291 228, 293 224, 294 219 C 297 209, 297 192, 295 185 C 294 183, 293 180, 294 180 C 295 179, 301 187, 304 194 C 307 199, 308 206, 310 218 C 310 223, 311 224, 313 224 C 316 224, 316 224, 319 218 C 320 214, 321 210, 322 205 C 322 198, 322 197, 324 198 C 328 200, 330 198, 332 192 C 335 180, 332 167, 322 159 C 310 147, 295 145, 277 153 L 272 155 267 153 C 256 148, 245 146, 229 148 L 222 149 219 145 C 213 140, 211 134, 211 126 L 211 120 216 122 L 220 124 222 122 C 224 120, 224 119, 223 116 C 222 111, 220 106, 217 102 C 215 99, 215 99, 217 98 C 223 96, 220 87, 211 78 C 205 73, 189 64, 185 64 C 184 64, 182 64, 182 63 C 180 63, 180 62, 183 60 C 188 54, 192 47, 195 40 C 199 28, 197 22, 190 24 C 185 25, 178 27, 172 30 C 168 32, 166 33, 165 33 C 165 33, 165 31, 164 29 C 162 20, 153 14, 139 11 C 132 9, 116 8, 110 9 M 102 16 C 95 17, 86 20, 82 24 C 78 27, 77 28, 77 31 C 77 35, 80 38, 88 42 C 94 45, 94 45, 94 48 C 92 59, 92 61, 94 62 C 98 65, 105 62, 114 54 C 116 52, 118 50, 120 50 C 121 50, 122 50, 122 56 C 122 65, 122 64, 126 64 C 131 63, 140 58, 147 51 C 159 39, 161 31, 155 25 C 151 21, 145 18, 136 17 C 128 15, 111 15, 102 16 M 183 33 C 169 37, 158 46, 154 57 C 152 62, 150 63, 149 59 C 149 56, 148 56, 146 59 C 142 63, 133 68, 129 69 C 123 70, 119 68, 118 64 C 117 63, 116 61, 115 61 C 115 62, 112 64, 109 65 C 105 68, 103 69, 98 69 C 95 69, 92 69, 91 68 C 88 66, 86 62, 86 57 L 86 52 81 55 C 67 65, 54 78, 43 93 C 38 100, 38 101, 41 101 C 51 101, 68 111, 79 123 C 93 137, 102 156, 102 170 C 102 171, 102 173, 103 173 C 104 173, 110 169, 114 166 C 117 164, 118 164, 120 166 C 121 167, 121 168, 117 171 L 112 176 111 189 C 108 222, 118 263, 132 275 C 135 278, 137 279, 140 279 C 148 279, 150 274, 151 260 C 151 254, 151 250, 152 249 C 153 248, 155 249, 161 251 C 170 256, 179 259, 187 260 C 198 262, 225 262, 229 259 C 230 259, 229 257, 228 253 C 226 247, 225 237, 227 232 C 229 227, 233 224, 237 223 C 241 223, 241 225, 237 228 C 232 231, 231 235, 231 242 C 232 257, 244 270, 256 270 C 266 270, 270 258, 264 244 C 262 240, 262 240, 263 238 C 265 236, 267 237, 269 243 L 272 248 276 242 C 291 222, 294 196, 285 178 C 282 171, 273 163, 266 159 C 256 155, 251 154, 235 154 C 223 155, 219 155, 215 154 C 208 152, 199 146, 195 141 C 190 135, 185 121, 183 106 C 180 88, 175 72, 171 68 C 170 67, 169 66, 169 66 C 169 66, 171 63, 175 60 C 183 50, 186 46, 190 35 C 191 33, 191 32, 190 31 C 190 31, 186 31, 183 33 M 59 33 C 57 33, 57 34, 58 35 C 60 44, 68 55, 72 55 C 73 55, 84 48, 84 48 C 84 47, 82 46, 79 44 C 75 42, 73 40, 72 37 C 70 32, 70 32, 66 32 C 63 32, 60 32, 59 33 M 177 68 C 184 81, 185 86, 189 105 C 193 125, 199 139, 206 143 C 211 146, 211 146, 209 141 C 206 135, 206 127, 207 121 C 209 113, 209 113, 214 115 C 215 116, 217 117, 217 116 C 219 114, 213 104, 207 99 C 199 90, 199 87, 207 89 C 208 90, 211 90, 212 90 C 215 89, 203 79, 193 73 C 184 68, 176 66, 177 68 M 61 82 C 60 88, 63 92, 70 94 C 75 95, 82 87, 78 84 C 77 84, 76 85, 74 86 C 71 90, 67 89, 66 85 C 65 80, 62 78, 61 82 M 91 88 C 90 90, 92 96, 94 98 C 99 102, 106 101, 110 95 C 114 89, 110 86, 106 92 C 103 97, 97 95, 96 89 C 95 87, 93 86, 91 88 M 33 109 C 29 117, 24 131, 23 143 C 22 151, 22 154, 23 160 C 27 177, 38 187, 55 188 C 65 188, 75 187, 85 183 C 96 179, 96 178, 96 172 C 96 146, 70 114, 44 107 C 36 105, 35 106, 33 109 M 31 127 C 31 127, 30 129, 29 131 C 28 137, 32 136, 33 131 C 34 127, 33 126, 31 127 M 49 129 C 48 130, 50 137, 52 137 C 53 137, 53 133, 52 129 C 52 127, 49 126, 49 129 M 290 155 C 284 156, 278 158, 278 159 C 278 159, 280 161, 282 164 C 284 166, 287 169, 288 171 C 289 173, 291 174, 292 174 C 300 174, 310 189, 313 205 C 315 214, 316 213, 317 203 C 317 198, 317 194, 315 189 C 314 183, 313 181, 315 180 C 316 179, 316 179, 318 181 C 320 182, 321 184, 321 184 C 321 185, 322 187, 323 188 L 326 191 327 189 C 328 185, 326 176, 324 171 C 322 166, 315 160, 310 157 C 305 155, 294 153, 290 155 M 103 215 C 99 219, 98 223, 98 230 C 98 235, 99 238, 101 241 C 103 243, 106 246, 107 247 C 111 248, 111 248, 108 238 C 108 235, 106 227, 106 222 C 105 213, 104 213, 103 215 M 281 246 C 278 250, 275 253, 274 254 C 273 256, 272 258, 272 259 C 272 261, 271 264, 270 267 C 269 271, 269 271, 271 274 C 277 279, 283 281, 287 276 C 289 274, 289 273, 289 263 C 289 252, 288 242, 286 241 C 286 240, 283 243, 281 246" stroke="none" fill="#000000" fill-rule="evenodd"/>
</svg>