<svg viewBox="0 0 1024 1024" xmlns="http://www.w3.org/2000/svg">
    <path d="M522 149C728 149 896 316 896 522.6S728 896 522 896 149 728 149 522 316 149 522 149.3zM214 554.7c16 155 147 277 307 277.3s291.6-121.5 307.6-277.3h-174.5l-2.3 2.9-2 2.7-90 90.5a53 53 0 0 1-72.6 2.6l-2.7-2.6-90.5-90.46a53.7 53.7 0 0 1-4.9-5.7h-174.5zM522.6 447L447 522.6l75 75 75-75-75-75zM522 213c-160 0-291.6 121.5-307.6 277h174.5l2-2.9 2.6-2.7 90-90.5a53 53 0 0 1 72.6-2.6l2 2 90 90c1.8 1.8 3 3.7 4.9 5.7h174.5C814 334 682 213 522 213z"
          fill="#ea9518"/>
</svg>
