<svg viewBox="0 0 1024 1024" xmlns="http://www.w3.org/2000/svg" width="32" height="32"><path d="M2 169h1020v713H2z" fill="#34CA9D"/><path d="M442 125H73v686h369a72 72 0 0 1 72 72v-686a72 72 0 0 0-72-72z" fill="#FFFFFF"/><path d="M534 883h-40a52 52 0 0 0-52-52H53v-726h389a92 92 0 0 1 92 92zM93 791h349a92 92 0 0 1 52 16V197a52 52 0 0 0-52-52H93z" fill="#282D33"/><path d="M582 125H951v686H582a72 72 0 0 0-72 72v-686a72 72 0 0 1 72-72z" fill="#FFFFFF"/><path d="M530 883h-40v-686a92 92 0 0 1 92-92H971v726H582a52 52 0 0 0-52 52z m52-738a52 52 0 0 0-52 52V807a91 91 0 0 1 52-16H931v-646zM146 200h172v40H146zM146 312h289v40H146zM146 393h289v40H146zM146 475h207v40H146z" fill="#282D33"/><path d="M734 834a151 151 0 0 0-46 7l46 125 46-125a151 151 0 0 0-46-7z" fill="#FFFFFF"/><path d="M734 1024l-72-196 20-6a175 175 0 0 1 103 0l20 6z m-20-169l20 53 20-53a140 140 0 0 0-39 0z" fill="#282D33"/><path d="M664 569h139v260H664z" fill="#F8C44F"/><path d="M683 8v51h101V8c0-5-5-8-11-8h-79c-6 0-11 4-11 8z" fill="#34CA9D"/><path d="M683 57h103v70H683z" fill="#FFFFFF"/><path d="M805 147H663V37h142z m-103-40h63V77h-63z" fill="#282D33"/><path d="M804 682V147H664v544l140-8z" fill="#F8C44F"/></svg>