<svg width="256" height="256" viewBox="0 0 256 256" xmlns="http://www.w3.org/2000/svg">
    <!-- 外圈圆环 -->
    <circle cx="128" cy="128" r="115" fill="none" stroke="white" stroke-width="2" opacity="0.55"/>
    <!-- 内圈圆环 -->
    <circle cx="128" cy="128" r="85" fill="none" stroke="white" stroke-width="2" opacity="0.55"/>

    <!-- 刻度短线 -->
    <g stroke="white" stroke-width="1" opacity="0.5">
        <line x1="128" y1="43" x2="128" y2="53"/>
        <line x1="178" y1="58" x2="188" y2="68"/>
        <line x1="213" y1="128" x2="203" y2="128"/>
        <line x1="178" y1="198" x2="188" y2="188"/>
        <line x1="128" y1="213" x2="128" y2="203"/>
        <line x1="78" y1="198" x2="68" y2="188"/>
        <line x1="43" y1="128" x2="53" y2="128"/>
        <line x1="78" y1="58" x2="68" y2="68"/>
    </g>

    <!-- 两个小圆装饰 -->
    <circle cx="70" cy="185" r="9" fill="none" stroke="white" stroke-width="1" opacity="0.5"/>
    <circle cx="186" cy="70" r="9" fill="none" stroke="white" stroke-width="1" opacity="0.5"/>

    <!-- 四角菱形角标 -->
    <g fill="white" opacity="0.35" font-family="serif" font-size="12">
        <text x="27" y="35">◆</text>
        <text x="217" y="35">◆</text>
    </g>

    <!-- 心脏图标（纯线条，居中，搏动动画） -->
    <g transform="translate(128, 128)">
        <g fill="none" stroke="white" stroke-width="3.5" stroke-linecap="round" stroke-linejoin="round">
            <!-- 心脏轮廓 -->
            <path d="M 0,55 C -65,-5 -65,-55 -35,-55 C -15,-55 0,-35 0,-20 C 0,-35 15,-55 35,-55 C 65,-55 65,-5 0,55 Z"/>
            <!-- 搏动动画（心跳节奏：强搏-回落-弱搏-间歇） -->
            <animateTransform attributeName="transform" type="scale"
                values="1;1.15;1;1.07;1"
                keyTimes="0;0.12;0.3;0.42;1"
                dur="1.1s" repeatCount="indefinite"/>
        </g>
    </g>
</svg>
