<svg viewBox="0 0 1238 1024" xmlns="http://www.w3.org/2000/svg" width="64" height="64">
    <path d="M813 586s-34 152-34 177 3 89 137 124c15 4 37-110 37-110s0-56-140-190zM489 906l149-34s97-43 157-19 96 29 105 40-121 77-121 77-50 32-138 10-152-74-152-74zM674 492s71 94 81 116c4 10 32 42 15 79s-44 102-44 102-67-11-103-82c-21-41 51-215 51-215zM372 791s86 60 99 61 30 23 82 24 156-70 156-70-62-53-127-57c-49-3-164 28-210 42zM550 385s-49 131-53 146c-5 22-24 61 12 109s58 49 58 49 29-37 61-104-47-164-78-201zM441 290s-48 134-52 149c-3 9-29 61 31 124 3 3 21 17 21 17s47-70 67-118-67-172-67-172zM352 187s-47 126-52 143c-4 17-24 61 11 109 16 22 31 34 31 34s59-86 67-121C421 297 352 187 352 187zM97 438s96-15 123-22 57 3 91 41c8 10 19 28 19 28S274 525 235 534s-109-48-137-96zM173 552s114-19 134-25 68-5 108 51c3 4 14 16 14 16s-78 50-94 51c-14 1-51 25-162-93zM260 669S386 647 400 643s81-19 143 44c7 7 14 15 14 15s-89 57-104 58-63 27-192-90zM933 891s-7 1-6 9 271 132 300 124c5-1 11-30 11-30s-158-29-306-102z"
          fill="#f3d19e"/>
    <path d="M220 38L210 46l123 200 7-15L220 38zM9 226L0 234l138 222 7-15L9 226zM156 27l-9 8s124 227 164 272l7-9S181 83 156 27zM25 163l-9 8s124 227 164 272l7-9S50 219 25 163zM101 15l-9 8s156 308 205 340c5 3 5-16 5-16S257 315 101 15zM39 77l-9 8s158 318 206 350c5 3 5-16 5-16s-46-42-202-342zM44 0l-10 10s214 391 249 417c4 3 13-4 13-4s-96-133-253-423z"
          fill="#f3d19e"/>
</svg>