<svg viewBox="0 0 1024 1024" xmlns="http://www.w3.org/2000/svg"
     width="64" height="64">
    <path d="M505 222c-10 0-18-8-18-18V96c0-10 8-18 18-18 10 0 18 8 18 18v108c0 10-8 18-18 18zM505 940s0 0 0 0c-10 0-18-8-18-18V814c0-10 8-18 18-18s18 8 18 18v108c0 10-8 18-18 18z"
          fill="#fab6b6"/>
    <path d="M302 306c-7 7-18 7-25 0l-76-76c-7-7-7-18 0-25 7-7 18-7 25 0l76 76c7 7 7 18 0 25zM810 814c-7 7-18 7-25 0l-76-76c-7-7-7-18 0-25 7-7 18-7 25 0l76 76c7 7 7 18 0 25z"
          fill="#fab6b6"/>
    <path d="M218 509c0 10-8 18-18 18H93c-10 0-18-8-18-18 0-10 8-18 18-18h108c10 0 18 8 18 18zM936 509c0 10-8 18-18 18H810c-10 0-18-8-18-18 0-10 8-18 18-18h108c10 0 18 8 18 18z"
          fill="#fab6b6"/>
    <path d="M302 712c7 7 7 18 0 25l-76 76c-7 7-18 7-25 0-7-7-7-18 0-25l76-76c7-7 18-7 25 0zM810 204c0 0 0 0 0 0 7 7 7 18 0 25l-76 76c-7 7-18 7-25 0-7-7-7-18 0-25l76-76c7-7 18-7 25 0z"
          fill="#fab6b6"/>
    <path d="M505 742c-129 0-233-105-233-233S377 276 505 276c129 0 233 105 233 233S634 742 505 742z"
          fill="#fab6b6"/>
</svg>