<svg viewBox="0 0 1024 1024" xmlns="http://www.w3.org/2000/svg" width="64" height="64">
    <path d="M507 520h-33c-1 0-2-1-2-2V126c0-1 1-2 2-2h33c1 0 2 1 2 2v392c0 1-1 2-2 2z" fill="#8DD2FC"/>
    <path d="M503 293l-24 24c-1 1-2 1-3 0L376 215c-1-1-1-2 0-3l24-24c1-1 2-1 3 0l102 102c1 1 1 2 0 3z" fill="#8DD2FC"/>
    <path d="M477 293l24 24c1 1 2 1 3 0l102-102c1-1 1-2 0-3l-24-24c-1-1-2-1-3 0L477 291c-1 1-1 2 0 3zM498 506l-17 29c-0 1-2 1-2 1L139 339a2 2 0 0 1-1-2l17-29c0-1 2-1 2-1L498 503c1 0 1 2 1 2z"
          fill="#8DD2FC"/>
    <path d="M300 395l9 32c0 1-0 2-1 2l-139 37c-1 0-2-0-2-1l-9-32c-0-1 0-2 1-2l139-37c1-0 2 0 2 1z" fill="#8DD2FC"/>
    <path d="M287 418l32-9c1-0 2-1 1-2L283 268a2 2 0 0 0-2-1l-32 9c-1 0-2 1-1 2l37 139a2 2 0 0 0 2 1z" fill="#8DD2FC"/>
    <path d="M482 506l17 29c0 1 0 2-1 2L158 733c-1 0-2 0-2-1l-17-29c-0-1-0-2 1-2l340-196c1-0 2-0 2 1z" fill="#8DD2FC"/>
    <path d="M287 622l32 9c1 0 2 1 1 2L283 772c-0 1-1 2-2 1l-32-9a2 2 0 0 1-1-2l37-139a2 2 0 0 1 2-1z" fill="#8DD2FC"/>
    <path d="M300 645l9-32c0-1-0-2-1-2l-139-37c-1-0-2 0-2 1l-9 32c-0 1 0 2 1 2l139 37c1 0 2-0 2-1z" fill="#8DD2FC"/>
    <path d="M473 520h33c1 0 2 1 2 2v392c0 1-1 2-2 2h-33c-1 0-2-1-2-2V522c0-1 1-2 2-2z" fill="#8DD2FC"/>
    <path d="M477 747l24-24c1-1 2-1 3 0l102 102c1 1 1 2 0 3l-24 24c-1 1-2 1-3 0L477 749c-1-1-1-2 0-3z" fill="#8DD2FC"/>
    <path d="M503 747l-24-24c-1-1-2-1-3 0L376 825c-1 1-1 2 0 3l24 24c1 1 2 1 3 0l102-102c1-1 1-2 0-3z" fill="#8DD2FC"/>
    <path d="M482 534l17-29c0-1 2-1 2-1l340 196c1 0 1 2 1 2l-17 29c-0 1-2 1-2 1L482 537c-1-0-1-2-1-2z" fill="#8DD2FC"/>
    <path d="M680 645l-9-32c-0-1 0-2 1-2l139-37c1-0 2 0 2 1l9 32c0 1-0 2-1 2l-139 37c-1 0-2-0-2-1z" fill="#8DD2FC"/>
    <path d="M693 622l-32 9c-1 0-2 1-1 2l37 139c0 1 1 2 2 1l32-9c1-0 2-1 1-2L695 623a2 2 0 0 0-2-1z" fill="#8DD2FC"/>
    <path d="M498 534l-17-29c-0-1-0-2 1-2l340-196c1-0 2-0 2 1l17 29c0 1 0 2-1 2L501 535c-1 0-2 0-2-1z" fill="#8DD2FC"/>
    <path d="M693 418l-32-9a2 2 0 0 1-1-2l37-139c0-1 1-2 2-1l32 9c1 0 2 1 1 2L695 417c-0 1-1 2-2 1z" fill="#8DD2FC"/>
    <path d="M680 395l-9 32c-0 1 0 2 1 2l139 37c1 0 2-0 2-1l9-32c0-1-0-2-1-2l-139-37c-1-0-2 0-2 1z" fill="#8DD2FC"/>
</svg>